<svg width="361" height="42" viewBox="0 0 361 42" fill="none" xmlns="http://www.w3.org/2000/svg">
<path d="M3.76172 21.918C4.86849 22.543 5.98828 23.1094 7.12109 23.6172C8.26693 24.112 9.45182 24.5352 10.6758 24.8867C11.8997 25.2253 13.1823 25.4857 14.5234 25.668C15.8776 25.8503 17.3164 25.9414 18.8398 25.9414C20.6758 25.9414 22.2383 25.8242 23.5273 25.5898C24.8164 25.3424 25.8646 25.0104 26.6719 24.5938C27.4922 24.1641 28.0846 23.6562 28.4492 23.0703C28.8268 22.4844 29.0156 21.8464 29.0156 21.1562C29.0156 20.0495 28.5534 19.1771 27.6289 18.5391C26.7044 17.888 25.2786 17.5625 23.3516 17.5625C22.5052 17.5625 21.6133 17.6211 20.6758 17.7383C19.7383 17.8424 18.7878 17.9596 17.8242 18.0898C16.8737 18.2201 15.9297 18.3438 14.9922 18.4609C14.0677 18.5651 13.1953 18.6172 12.375 18.6172C11.0078 18.6172 9.69271 18.4414 8.42969 18.0898C7.17969 17.7383 6.06641 17.2109 5.08984 16.5078C4.1263 15.8047 3.35807 14.9258 2.78516 13.8711C2.21224 12.8164 1.92578 11.5859 1.92578 10.1797C1.92578 9.34635 2.03646 8.51953 2.25781 7.69922C2.49219 6.87891 2.85677 6.09766 3.35156 5.35547C3.85938 4.60026 4.51042 3.90365 5.30469 3.26562C6.09896 2.61458 7.05599 2.05469 8.17578 1.58594C9.30859 1.11719 10.6107 0.752604 12.082 0.492188C13.5664 0.21875 15.2526 0.0820312 17.1406 0.0820312C18.5078 0.0820312 19.8815 0.160156 21.2617 0.316406C22.6419 0.459635 23.9831 0.667969 25.2852 0.941406C26.6003 1.21484 27.8633 1.54688 29.0742 1.9375C30.2852 2.3151 31.4115 2.73828 32.4531 3.20703L29.7383 8.20703C28.8789 7.82943 27.9544 7.48438 26.9648 7.17188C25.9753 6.84635 24.9401 6.56641 23.8594 6.33203C22.7786 6.09766 21.6589 5.91536 20.5 5.78516C19.3542 5.64193 18.1823 5.57031 16.9844 5.57031C15.2786 5.57031 13.8724 5.69401 12.7656 5.94141C11.6719 6.1888 10.7995 6.50781 10.1484 6.89844C9.4974 7.27604 9.04167 7.70573 8.78125 8.1875C8.53385 8.65625 8.41016 9.125 8.41016 9.59375C8.41016 10.5052 8.82031 11.2539 9.64062 11.8398C10.4609 12.4128 11.7109 12.6992 13.3906 12.6992C14.0677 12.6992 14.8424 12.6536 15.7148 12.5625C16.6003 12.4583 17.5247 12.3477 18.4883 12.2305C19.4648 12.1133 20.4544 12.0091 21.457 11.918C22.4727 11.8138 23.4557 11.7617 24.4062 11.7617C26.2031 11.7617 27.7917 11.9635 29.1719 12.3672C30.5651 12.7708 31.7305 13.3503 32.668 14.1055C33.6055 14.8477 34.3151 15.7526 34.7969 16.8203C35.2786 17.875 35.5195 19.0599 35.5195 20.375C35.5195 22.1328 35.1094 23.7018 34.2891 25.082C33.4818 26.4492 32.3229 27.6081 30.8125 28.5586C29.3151 29.4961 27.5052 30.2122 25.3828 30.707C23.2604 31.1888 20.8971 31.4297 18.293 31.4297C16.5742 31.4297 14.8945 31.319 13.2539 31.0977C11.6133 30.8893 10.0378 30.5898 8.52734 30.1992C7.02995 29.7956 5.59766 29.3203 4.23047 28.7734C2.8763 28.2135 1.61979 27.6016 0.460938 26.9375L3.76172 21.918ZM42.3555 0.472656H48.5469L59.6406 11.6055L70.7344 0.472656H76.9258V31H70.7344V9.04688L59.6406 19.7305L48.5469 9.04688V31H42.3555V0.472656ZM192.004 0.472656H198.195L209.289 11.6055L220.383 0.472656H226.574V31H220.383V9.04688L209.289 19.7305L198.195 9.04688V31H192.004V0.472656ZM233.156 19.4766C233.156 17.8229 233.488 16.2734 234.152 14.8281C234.829 13.3828 235.786 12.1198 237.023 11.0391C238.273 9.95833 239.777 9.10547 241.535 8.48047C243.306 7.85547 245.292 7.54297 247.492 7.54297C249.693 7.54297 251.672 7.85547 253.43 8.48047C255.201 9.10547 256.704 9.95833 257.941 11.0391C259.191 12.1198 260.148 13.3828 260.812 14.8281C261.49 16.2734 261.828 17.8229 261.828 19.4766C261.828 21.1302 261.49 22.6797 260.812 24.125C260.148 25.5703 259.191 26.8333 257.941 27.9141C256.704 28.9948 255.201 29.8477 253.43 30.4727C251.672 31.0977 249.693 31.4102 247.492 31.4102C245.292 31.4102 243.306 31.0977 241.535 30.4727C239.777 29.8477 238.273 28.9948 237.023 27.9141C235.786 26.8333 234.829 25.5703 234.152 24.125C233.488 22.6797 233.156 21.1302 233.156 19.4766ZM239.23 19.4766C239.23 20.401 239.413 21.2799 239.777 22.1133C240.155 22.9336 240.695 23.6628 241.398 24.3008C242.115 24.9258 242.98 25.4271 243.996 25.8047C245.025 26.1693 246.19 26.3516 247.492 26.3516C248.794 26.3516 249.953 26.1693 250.969 25.8047C251.997 25.4271 252.863 24.9258 253.566 24.3008C254.283 23.6628 254.823 22.9336 255.188 22.1133C255.565 21.2799 255.754 20.401 255.754 19.4766C255.754 18.5521 255.565 17.6732 255.188 16.8398C254.823 16.0065 254.283 15.2773 253.566 14.6523C252.863 14.0143 251.997 13.513 250.969 13.1484C249.953 12.7708 248.794 12.582 247.492 12.582C246.19 12.582 245.025 12.7708 243.996 13.1484C242.98 13.513 242.115 14.0143 241.398 14.6523C240.695 15.2773 240.155 16.0065 239.777 16.8398C239.413 17.6732 239.23 18.5521 239.23 19.4766ZM267.668 7.95312H273.449V9.90625C274.986 9.03385 276.451 8.42188 277.844 8.07031C279.25 7.71875 280.624 7.54297 281.965 7.54297C283.723 7.54297 285.35 7.80339 286.848 8.32422C288.345 8.83203 289.641 9.59375 290.734 10.6094C291.828 11.625 292.681 12.8945 293.293 14.418C293.918 15.9284 294.23 17.6797 294.23 19.6719V31H288.469V20.6094C288.469 19.3464 288.286 18.2201 287.922 17.2305C287.57 16.2279 287.056 15.388 286.379 14.7109C285.715 14.0208 284.901 13.5 283.938 13.1484C282.987 12.7839 281.919 12.6016 280.734 12.6016C280.109 12.6016 279.465 12.6667 278.801 12.7969C278.15 12.9271 277.505 13.1159 276.867 13.3633C276.242 13.5977 275.637 13.8971 275.051 14.2617C274.465 14.6133 273.931 15.0169 273.449 15.4727V31H267.668V7.95312ZM300.246 19.3984C300.246 17.8359 300.565 16.3451 301.203 14.9258C301.841 13.4935 302.759 12.2305 303.957 11.1367C305.155 10.043 306.62 9.17057 308.352 8.51953C310.096 7.86849 312.076 7.54297 314.289 7.54297C316.49 7.54297 318.469 7.875 320.227 8.53906C321.997 9.1901 323.495 10.0885 324.719 11.2344C325.956 12.3802 326.9 13.7279 327.551 15.2773C328.215 16.8268 328.547 18.487 328.547 20.2578C328.547 20.4792 328.54 20.7201 328.527 20.9805C328.527 21.2279 328.514 21.4557 328.488 21.6641H306.691C306.939 22.3542 307.336 22.9857 307.883 23.5586C308.443 24.1315 309.139 24.6263 309.973 25.043C310.806 25.4596 311.77 25.7852 312.863 26.0195C313.957 26.2409 315.168 26.3516 316.496 26.3516C317.824 26.3516 319.146 26.2148 320.461 25.9414C321.776 25.6549 323.033 25.2969 324.23 24.8672L326.184 29.2812C325.428 29.6328 324.66 29.9453 323.879 30.2188C323.111 30.4792 322.303 30.7005 321.457 30.8828C320.624 31.0521 319.745 31.1823 318.82 31.2734C317.909 31.3646 316.945 31.4102 315.93 31.4102C313.339 31.4102 311.066 31.0977 309.113 30.4727C307.16 29.8477 305.526 28.9948 304.211 27.9141C302.896 26.8333 301.906 25.5638 301.242 24.1055C300.578 22.6471 300.246 21.0781 300.246 19.3984ZM322.414 17.1523C322.206 16.5143 321.88 15.9219 321.438 15.375C321.008 14.8151 320.467 14.3333 319.816 13.9297C319.165 13.513 318.41 13.1875 317.551 12.9531C316.691 12.7188 315.747 12.6016 314.719 12.6016C313.625 12.6016 312.629 12.7253 311.73 12.9727C310.832 13.2201 310.044 13.5521 309.367 13.9688C308.69 14.3854 308.124 14.8672 307.668 15.4141C307.225 15.9609 306.9 16.5404 306.691 17.1523H322.414ZM337.531 33.8906C338.13 34.2812 338.781 34.6263 339.484 34.9258C340.188 35.2253 340.917 35.4727 341.672 35.668C342.44 35.8633 343.221 36.0065 344.016 36.0977C344.81 36.2018 345.598 36.2539 346.379 36.2539C349.035 36.2539 351.079 35.681 352.512 34.5352C353.957 33.4023 354.68 31.6966 354.68 29.418V28.6367C354.172 28.9883 353.599 29.3138 352.961 29.6133C352.336 29.8997 351.659 30.1471 350.93 30.3555C350.214 30.5638 349.452 30.7266 348.645 30.8438C347.85 30.9479 347.043 31 346.223 31C344.465 31 342.889 30.7461 341.496 30.2383C340.116 29.7174 338.944 28.9622 337.98 27.9727C337.03 26.9701 336.301 25.7396 335.793 24.2812C335.285 22.8229 335.031 21.1562 335.031 19.2812V7.95312H340.793V17.6797C340.793 20.4661 341.32 22.5234 342.375 23.8516C343.443 25.1667 345.122 25.8242 347.414 25.8242C349.029 25.8242 350.454 25.5443 351.691 24.9844C352.941 24.4115 353.938 23.6823 354.68 22.7969V7.95312H360.461V28.3633C360.461 30.5638 360.148 32.4714 359.523 34.0859C358.898 35.7135 357.987 37.0612 356.789 38.1289C355.604 39.1966 354.146 39.9909 352.414 40.5117C350.682 41.0456 348.716 41.3125 346.516 41.3125C344.367 41.3125 342.362 41.0846 340.5 40.6289C338.638 40.1732 336.932 39.5547 335.383 38.7734L337.531 33.8906Z" fill="#091524"/>
<path d="M96.0273 0.472656H102.59L117.355 31H110.852L108.41 25.8633H90.5781L88.2148 31H81.6914L96.0273 0.472656ZM105.969 20.7656L99.3672 6.89844L92.9414 20.7656H105.969ZM122.102 0.472656H137.629C139.973 0.472656 142.004 0.720052 143.723 1.21484C145.441 1.69661 146.867 2.39974 148 3.32422C149.133 4.2487 149.973 5.375 150.52 6.70312C151.079 8.03125 151.359 9.53516 151.359 11.2148C151.359 12.3477 151.223 13.4284 150.949 14.457C150.676 15.4727 150.253 16.4102 149.68 17.2695C149.12 18.1289 148.41 18.8971 147.551 19.5742C146.691 20.2383 145.682 20.7917 144.523 21.2344L151.164 31H143.586L137.844 22.3281H137.668L128.293 22.3086V31H122.102V0.472656ZM137.785 16.957C138.957 16.957 139.979 16.8203 140.852 16.5469C141.737 16.2734 142.473 15.8893 143.059 15.3945C143.658 14.8997 144.1 14.3008 144.387 13.5977C144.686 12.8815 144.836 12.0872 144.836 11.2148C144.836 9.50911 144.25 8.19401 143.078 7.26953C141.906 6.33203 140.142 5.86328 137.785 5.86328H128.293V16.957H137.785ZM167.902 5.90234H156.633V0.472656H185.363V5.90234H174.094V31H167.902V5.90234Z" fill="#86C5CE"/>
</svg>
