<svg width="256" height="105" viewBox="0 0 256 105" fill="none" xmlns="http://www.w3.org/2000/svg">
<path d="M140 1H160.775L198 38.1977L235.225 1H256V103H235.225V29.6488L198 65.3455L160.775 29.6488V103H140V1Z" fill="#86C5CE"/>
<path d="M11.0156 73.1402C14.7092 75.2336 18.4462 77.1308 22.2267 78.8318C26.0507 80.4891 30.005 81.9065 34.0897 83.0841C38.1744 84.2181 42.4546 85.0903 46.9304 85.7009C51.4496 86.3115 56.2513 86.6168 61.3354 86.6168C67.4624 86.6168 72.6769 86.2243 76.9788 85.4392C81.2808 84.6106 84.7788 83.4984 87.473 82.1028C90.2106 80.6635 92.1877 78.9626 93.4045 77C94.6646 75.0374 95.2947 72.9003 95.2947 70.5888C95.2947 66.8816 93.7521 63.9595 90.6669 61.8224C87.5816 59.6417 82.8234 58.5514 76.3922 58.5514C73.5677 58.5514 70.5911 58.7477 67.4624 59.1402C64.3337 59.4891 61.1616 59.8816 57.946 60.3178C54.7738 60.7539 51.6234 61.1682 48.4947 61.5607C45.4095 61.9097 42.4981 62.0841 39.7604 62.0841C35.1978 62.0841 30.8089 61.4953 26.5939 60.3178C22.4223 59.1402 18.707 57.3738 15.4479 55.0187C12.2323 52.6635 9.66852 49.7196 7.75655 46.1869C5.84457 42.6542 4.88858 38.5327 4.88858 33.8224C4.88858 31.0312 5.25794 28.2617 5.99666 25.514C6.77883 22.7664 7.99554 20.1495 9.6468 17.6636C11.3415 15.134 13.5142 12.8006 16.1649 10.6636C18.8156 8.48287 22.0095 6.60748 25.7465 5.03738C29.527 3.46729 33.8724 2.24611 38.7827 1.37383C43.7365 0.457944 49.3638 0 55.6646 0C60.2273 0 64.8117 0.261682 69.4178 0.785047C74.024 1.2648 78.4997 1.96262 82.8451 2.8785C87.234 3.79439 91.449 4.90654 95.4903 6.21495C99.5315 7.47975 103.29 8.8972 106.767 10.4673L97.7064 27.215C94.8384 25.9502 91.7532 24.7944 88.4507 23.7477C85.1482 22.6573 81.6936 21.7196 78.0869 20.9346C74.4802 20.1495 70.7432 19.5389 66.8758 19.1028C63.0518 18.6231 59.1409 18.3832 55.1432 18.3832C49.4507 18.3832 44.7577 18.7975 41.0641 19.6262C37.4139 20.4548 34.5025 21.5234 32.3298 22.8318C30.1571 24.0966 28.6362 25.5358 27.7671 27.1495C26.9415 28.7196 26.5287 30.2897 26.5287 31.8598C26.5287 34.9128 27.8975 37.4206 30.6351 39.3832C33.3727 41.3022 37.5443 42.2617 43.1499 42.2617C45.4095 42.2617 47.995 42.109 50.9064 41.8037C53.8613 41.4548 56.9465 41.0841 60.1621 40.6916C63.4212 40.2991 66.7237 39.9502 70.0696 39.6449C73.4591 39.2959 76.7398 39.1215 79.912 39.1215C85.9086 39.1215 91.21 39.7975 95.8162 41.1495C100.466 42.5016 104.355 44.4424 107.484 46.972C110.612 49.4579 112.981 52.4891 114.588 56.0654C116.196 59.5981 117 63.567 117 67.972C117 73.8598 115.631 79.1153 112.894 83.7383C110.199 88.3178 106.332 92.1994 101.291 95.3832C96.2942 98.5234 90.254 100.922 83.171 102.579C76.088 104.193 68.2011 105 59.5103 105C53.7744 105 48.1688 104.629 42.6936 103.888C37.2184 103.19 31.9604 102.187 26.9198 100.879C21.9226 99.5265 17.1426 97.9346 12.5799 96.1028C8.06072 94.2274 3.86741 92.1776 0 89.9533L11.0156 73.1402Z" fill="#091524"/>
</svg>
