<svg width="257" height="106" viewBox="0 0 257 106" fill="none" xmlns="http://www.w3.org/2000/svg">
<path d="M140.5 1.5H161.275L198.5 38.6977L235.725 1.5H256.5V103.5H235.725V30.1488L198.5 65.8455L161.275 30.1488V103.5H140.5V1.5Z" fill="#86C5CE"/>
<path d="M11.5156 73.6402C15.2092 75.7336 18.9462 77.6308 22.7267 79.3318C26.5507 80.9891 30.505 82.4065 34.5897 83.5841C38.6744 84.7181 42.9546 85.5903 47.4304 86.2009C51.9496 86.8115 56.7513 87.1168 61.8354 87.1168C67.9624 87.1168 73.1769 86.7243 77.4788 85.9392C81.7808 85.1106 85.2788 83.9984 87.973 82.6028C90.7106 81.1636 92.6877 79.4626 93.9045 77.5C95.1646 75.5374 95.7947 73.4003 95.7947 71.0888C95.7947 67.3816 94.2521 64.4595 91.1669 62.3224C88.0816 60.1417 83.3234 59.0514 76.8922 59.0514C74.0677 59.0514 71.0911 59.2477 67.9624 59.6402C64.8337 59.9891 61.6616 60.3816 58.446 60.8178C55.2738 61.2539 52.1234 61.6682 48.9947 62.0607C45.9095 62.4097 42.9981 62.5841 40.2604 62.5841C35.6978 62.5841 31.3089 61.9953 27.0939 60.8178C22.9223 59.6402 19.207 57.8738 15.9479 55.5187C12.7323 53.1636 10.1685 50.2196 8.25655 46.6869C6.34457 43.1542 5.38858 39.0327 5.38858 34.3224C5.38858 31.5312 5.75794 28.7617 6.49666 26.014C7.27883 23.2664 8.49554 20.6495 10.1468 18.1636C11.8415 15.634 14.0142 13.3006 16.6649 11.1636C19.3156 8.98287 22.5095 7.10748 26.2465 5.53738C30.027 3.96729 34.3724 2.74611 39.2827 1.87383C44.2365 0.957944 49.8638 0.5 56.1646 0.5C60.7273 0.5 65.3117 0.761682 69.9178 1.28505C74.524 1.7648 78.9997 2.46262 83.3451 3.3785C87.734 4.29439 91.949 5.40654 95.9902 6.71495C100.031 7.97975 103.79 9.3972 107.267 10.9673L98.2064 27.715C95.3384 26.4502 92.2532 25.2944 88.9507 24.2477C85.6482 23.1573 82.1936 22.2196 78.5869 21.4346C74.9802 20.6495 71.2432 20.0389 67.3758 19.6028C63.5518 19.1231 59.6409 18.8832 55.6432 18.8832C49.9507 18.8832 45.2577 19.2975 41.5641 20.1262C37.9139 20.9548 35.0025 22.0234 32.8298 23.3318C30.6571 24.5966 29.1362 26.0358 28.2671 27.6495C27.4415 29.2196 27.0287 30.7897 27.0287 32.3598C27.0287 35.4128 28.3975 37.9206 31.1351 39.8832C33.8727 41.8022 38.0443 42.7617 43.6499 42.7617C45.9095 42.7617 48.495 42.609 51.4064 42.3037C54.3613 41.9548 57.4465 41.5841 60.6621 41.1916C63.9212 40.7991 67.2237 40.4502 70.5696 40.1449C73.9591 39.7959 77.2398 39.6215 80.412 39.6215C86.4086 39.6215 91.71 40.2975 96.3162 41.6495C100.966 43.0016 104.855 44.9424 107.984 47.472C111.112 49.9579 113.481 52.9891 115.088 56.5654C116.696 60.0981 117.5 64.067 117.5 68.472C117.5 74.3598 116.131 79.6153 113.394 84.2383C110.699 88.8178 106.832 92.6994 101.791 95.8832C96.7942 99.0234 90.754 101.422 83.671 103.079C76.588 104.693 68.7011 105.5 60.0103 105.5C54.2744 105.5 48.6688 105.129 43.1936 104.388C37.7184 103.69 32.4604 102.687 27.4198 101.379C22.4226 100.026 17.6426 98.4346 13.0799 96.6028C8.56072 94.7274 4.36741 92.6776 0.5 90.4533L11.5156 73.6402Z" fill="#091524"/>
</svg>
