<svg width="48" height="48" viewBox="0 0 48 48" fill="none" xmlns="http://www.w3.org/2000/svg">
<path d="M35.7844 21.1781C35.7844 12.0281 30.8625 8.91562 26.2594 8.22187C26.2594 8.175 26.2688 8.12812 26.2688 8.07187C26.2688 6.91875 25.2469 6 24 6C22.7531 6 21.7687 6.91875 21.7687 8.07187C21.7687 8.12812 21.7688 8.175 21.7781 8.22187C17.1656 8.925 12.2156 12.0469 12.2156 21.1969C12.2156 31.8656 9.5625 33.0094 6 36.0094H42C38.4562 33 35.7844 31.8469 35.7844 21.1781Z" fill="white"/>
<path d="M24.0188 42C26.5313 42 28.5937 40.1344 28.8656 37.9688H19.1719C19.4344 40.1344 21.5063 42 24.0188 42Z" fill="white"/>
</svg>
