<svg width="23" height="23" viewBox="0 0 23 23" fill="none" xmlns="http://www.w3.org/2000/svg">
<g clip-path="url(#clip0_131_417)">
<path d="M0 18.2068V20.125C0 21.7085 3.82285 23 8.625 23C13.3463 23 17.25 21.7085 17.25 20.125V18.2046C15.3992 19.5141 12.0031 20.125 8.625 20.125C5.24688 20.125 1.85303 19.5141 0 18.2068ZM14.375 5.75C19.0963 5.75 23 4.4585 23 2.875C23 1.2915 19.1367 0 14.375 0C9.57285 0 5.75 1.2915 5.75 2.875C5.75 4.4585 9.57285 5.75 14.375 5.75ZM0 13.4945V15.8125C0 17.396 3.82285 18.6875 8.625 18.6875C13.3463 18.6875 17.25 17.396 17.25 15.8125V13.4945C15.3992 15.0219 11.9986 15.8125 8.625 15.8125C5.25137 15.8125 1.85303 15.0219 0 13.4945ZM18.6875 13.9887C21.2615 13.4855 23 12.5691 23 11.5V9.57734C21.9556 10.3186 20.4282 10.8185 18.6875 11.1271V13.9887ZM8.625 7.1875C3.82285 7.1875 0 8.7957 0 10.7812C0 12.7668 3.82285 14.375 8.625 14.375C13.3463 14.375 17.25 12.769 17.25 10.7812C17.25 8.79346 13.3463 7.1875 8.625 7.1875ZM18.4719 9.71211C21.1717 9.23145 23 8.27461 23 7.1875V5.26484C21.4053 6.39373 18.665 7.00018 15.7766 7.14617C17.1063 7.78945 18.0811 8.65195 18.4719 9.71211Z" fill="black"/>
</g>
<defs>
<clipPath id="clip0_131_417">
<rect width="23" height="23" fill="white"/>
</clipPath>
</defs>
</svg>
