<svg width="25" height="26" viewBox="0 0 25 26" fill="none" xmlns="http://www.w3.org/2000/svg">
<g opacity="0.9">
<path fill-rule="evenodd" clip-rule="evenodd" d="M13.125 0.619049C8.75 0.619049 4.875 2.97143 2.875 6.56191L0 3.71429V11.7619H8.125L4.625 8.29524C6.25 5.2 9.375 3.09524 13.125 3.09524C18.25 3.09524 22.5 7.30476 22.5 12.381C22.5 17.4571 18.25 21.6667 13.125 21.6667C9 21.6667 5.625 19.0667 4.25 15.4762H1.625C3 20.4286 7.625 24.1429 13.125 24.1429C19.75 24.1429 25 18.819 25 12.381C25 5.94286 19.625 0.619049 13.125 0.619049ZM11.25 6.80953V13.1238L17.125 16.5905L18.125 14.981L13.125 12.0095V6.80953H11.25Z" fill="black"/>
</g>
</svg>
