<svg width="24" height="24" viewBox="0 0 24 24" fill="none" xmlns="http://www.w3.org/2000/svg">
<path d="M11.9004 0C11.9004 0 4.53882 7.12 0.424845 10.976C0.183266 11.2213 0 11.5787 0 12C0 12.7373 0.531948 13.3333 1.19004 13.3333H3.57012V22.6667C3.57012 23.404 4.10207 24 4.76016 24H8.33029C8.98838 24 9.52033 23.4027 9.52033 22.6667V17.3333H14.2805V22.6667C14.2805 23.4027 14.8124 24 15.4705 24H19.0407C19.6988 24 20.2307 23.404 20.2307 22.6667V13.3333H22.6108C23.2689 13.3333 23.8008 12.7373 23.8008 12C23.8008 11.5787 23.6176 11.2213 23.345 10.976C19.2596 7.12 11.9004 0 11.9004 0Z" fill="#091524"/>
</svg>
