<svg width="32" height="32" viewBox="0 0 32 32" fill="none" xmlns="http://www.w3.org/2000/svg">
<path d="M16 2.66667C8.65202 2.66667 2.66669 8.652 2.66669 16C2.66669 23.348 8.65202 29.3333 16 29.3333C23.348 29.3333 29.3334 23.348 29.3334 16C29.3334 8.652 23.348 2.66667 16 2.66667ZM16 5.33333C21.9068 5.33333 26.6667 10.0932 26.6667 16C26.6667 21.9068 21.9068 26.6667 16 26.6667C10.0932 26.6667 5.33335 21.9068 5.33335 16C5.33335 10.0932 10.0932 5.33333 16 5.33333Z" fill="black"/>
<path d="M16 12C15.6464 12 15.3073 12.1405 15.0572 12.3905C14.8072 12.6406 14.6667 12.9797 14.6667 13.3333V22.6667C14.6667 23.0203 14.8072 23.3594 15.0572 23.6095C15.3073 23.8595 15.6464 24 16 24C16.3536 24 16.6928 23.8595 16.9428 23.6095C17.1929 23.3594 17.3334 23.0203 17.3334 22.6667V13.3333C17.3334 12.9797 17.1929 12.6406 16.9428 12.3905C16.6928 12.1405 16.3536 12 16 12Z" fill="black"/>
<path d="M17.3334 9.3328C17.3334 9.68642 17.1929 10.0255 16.9428 10.2756C16.6928 10.5256 16.3536 10.6661 16 10.6661C15.6464 10.6661 15.3073 10.5256 15.0572 10.2756C14.8072 10.0255 14.6667 9.68642 14.6667 9.3328C14.6667 8.97918 14.8072 8.64002 15.0572 8.38997C15.3073 8.13992 15.6464 7.99947 16 7.99947C16.3536 7.99947 16.6928 8.13992 16.9428 8.38997C17.1929 8.64002 17.3334 8.97918 17.3334 9.3328Z" fill="black"/>
</svg>
