<svg width="35" height="35" viewBox="0 0 35 35" fill="none" xmlns="http://www.w3.org/2000/svg">
<path d="M20.0908 30.7617H15.964C15.7107 30.7618 15.4663 30.6681 15.278 30.4987C15.0897 30.3293 14.9707 30.0962 14.944 29.8443L14.6385 26.9671C14.2119 26.8219 13.7952 26.6493 13.3909 26.4503L11.1426 28.2687C10.9458 28.4271 10.6974 28.5074 10.4451 28.494C10.1928 28.4807 9.9543 28.3746 9.77538 28.1962L6.85712 25.2779C6.67872 25.099 6.57266 24.8605 6.55928 24.6082C6.54591 24.3559 6.62617 24.1075 6.78466 23.9107L8.6037 21.6597C8.40436 21.2555 8.2315 20.8387 8.08622 20.4121L5.20419 20.1045C4.95242 20.0778 4.71942 19.959 4.55005 19.7708C4.38068 19.5826 4.28691 19.3384 4.2868 19.0853V14.9577C4.28691 14.7045 4.38068 14.4604 4.55005 14.2722C4.71942 14.084 4.95242 13.9651 5.20419 13.9385L8.08143 13.6329C8.22672 13.2063 8.39957 12.7896 8.59891 12.3854L6.77987 10.1343C6.62138 9.9375 6.54113 9.68913 6.5545 9.43682C6.56787 9.18451 6.67393 8.94602 6.85233 8.76709L9.77059 5.84883C9.94952 5.67043 10.188 5.56437 10.4403 5.551C10.6926 5.53763 10.941 5.61788 11.1378 5.77637L13.3889 7.59473C13.7931 7.39573 14.2098 7.2231 14.6364 7.07793L14.942 4.20069C14.9682 3.94808 15.0873 3.7142 15.2761 3.54435C15.4649 3.37449 15.71 3.28074 15.964 3.28125H20.0908C20.3441 3.28119 20.5884 3.37489 20.7768 3.54427C20.9651 3.71366 21.0841 3.94675 21.1107 4.19863L21.4156 7.07588C21.8424 7.22105 22.2594 7.39368 22.6639 7.59268L24.9142 5.77432C25.111 5.61583 25.3594 5.53557 25.6117 5.54895C25.864 5.56232 26.1025 5.66838 26.2814 5.84678L29.1997 8.76504C29.3781 8.94396 29.4842 9.18246 29.4975 9.43477C29.5109 9.68708 29.4306 9.93545 29.2722 10.1322L27.4531 12.3833C27.6522 12.7876 27.825 13.2043 27.9706 13.6309L30.8478 13.9364C31.0995 13.9633 31.3323 14.0822 31.5015 14.2703C31.6708 14.4585 31.7644 14.7026 31.7645 14.9557V19.0832C31.765 19.3362 31.672 19.5804 31.5032 19.769C31.3345 19.9575 31.1021 20.077 30.8506 20.1045L27.9733 20.4101C27.8278 20.8366 27.6549 21.2533 27.4558 21.6576L29.2749 23.9087C29.4334 24.1055 29.5136 24.3538 29.5003 24.6062C29.4869 24.8585 29.3808 25.097 29.2024 25.2759L26.2842 28.1962C26.1052 28.3746 25.8668 28.4807 25.6144 28.494C25.3621 28.5074 25.1138 28.4271 24.917 28.2687L22.6666 26.4503C22.2621 26.6493 21.8451 26.8219 21.4183 26.9671L21.1135 29.8443C21.0867 30.0967 20.9674 30.3302 20.7785 30.4996C20.5896 30.6691 20.3446 30.7625 20.0908 30.7617ZM16.8848 28.7109H19.1673L19.4469 26.075C19.4688 25.8687 19.5528 25.6739 19.6878 25.5163C19.8228 25.3587 20.0024 25.2458 20.2029 25.1925C20.9252 24.9999 21.6185 24.7118 22.2646 24.3359C22.4445 24.2311 22.6521 24.1835 22.8597 24.1995C23.0672 24.2155 23.265 24.2943 23.4267 24.4255L25.4885 26.0914L27.1024 24.4774L25.4338 22.4219C25.3026 22.2602 25.2238 22.0624 25.2078 21.8548C25.1918 21.6472 25.2394 21.4397 25.3442 21.2598C25.7193 20.6141 26.0065 19.9212 26.198 19.1994C26.2514 18.9988 26.3644 18.8191 26.5221 18.6841C26.6798 18.5491 26.8748 18.4652 27.0812 18.4434L29.7165 18.1631V15.8806L27.0812 15.6003C26.8748 15.5785 26.6798 15.4945 26.5221 15.3595C26.3644 15.2245 26.2514 15.0449 26.198 14.8442C26.0065 14.1223 25.7194 13.4291 25.3442 12.7832C25.2394 12.6033 25.1918 12.3958 25.2078 12.1882C25.2238 11.9806 25.3026 11.7828 25.4338 11.6211L27.0997 9.55938L25.4857 7.94541L23.424 9.61133C23.2623 9.74247 23.0645 9.82128 22.8569 9.83728C22.6493 9.85328 22.4418 9.8057 22.2619 9.70088C21.6161 9.32605 20.9232 9.03892 20.2016 8.84707C20.001 8.79374 19.8214 8.68083 19.6864 8.52326C19.5514 8.36569 19.4674 8.17088 19.4455 7.96455L19.1686 5.33203H16.8848L16.6052 7.96797C16.5832 8.17438 16.4991 8.36926 16.3639 8.52684C16.2288 8.68441 16.0491 8.79727 15.8484 8.85049C15.1273 9.04322 14.4351 9.33127 13.7901 9.70703C13.6102 9.81185 13.4027 9.85943 13.1951 9.84343C12.9875 9.82743 12.7897 9.74863 12.628 9.61748L10.5683 7.94883L8.95507 9.5628L10.6217 11.6245C10.7527 11.7863 10.8314 11.9841 10.8473 12.1917C10.8631 12.3993 10.8154 12.6068 10.7105 12.7866C10.336 13.4326 10.0489 14.1254 9.85673 14.847C9.80339 15.0475 9.69048 15.2271 9.53291 15.3621C9.37534 15.4971 9.18053 15.5811 8.97421 15.603L6.33827 15.8833V18.1651L8.97421 18.4454C9.18053 18.4673 9.37534 18.5514 9.53291 18.6864C9.69048 18.8213 9.80339 19.001 9.85673 19.2015C10.0488 19.9223 10.3357 20.6144 10.7099 21.2598C10.8148 21.4396 10.8625 21.6471 10.8466 21.8547C10.8307 22.0623 10.752 22.2601 10.621 22.4219L8.95507 24.4802L10.569 26.0941L12.6314 24.4282C12.7931 24.2971 12.9909 24.2183 13.1985 24.2023C13.4061 24.1863 13.6137 24.2339 13.7935 24.3387C14.4391 24.7136 15.1317 25.0007 15.8532 25.1925C16.0539 25.2457 16.2336 25.3586 16.3687 25.5161C16.5039 25.6737 16.588 25.8686 16.6099 26.075L16.8848 28.7109Z" fill="black"/>
<path d="M18.027 23.2668C16.7919 23.2667 15.5845 22.9003 14.5575 22.2139C13.5306 21.5276 12.7302 20.5522 12.2576 19.411C11.785 18.2698 11.6614 17.0141 11.9025 15.8027C12.1436 14.5912 12.7384 13.4785 13.6119 12.6051C14.4853 11.7318 15.5981 11.137 16.8096 10.8961C18.021 10.6552 19.2767 10.7789 20.4179 11.2516C21.559 11.7243 22.5343 12.5248 23.2206 13.5518C23.9068 14.5789 24.273 15.7863 24.273 17.0215C24.2712 18.6774 23.6126 20.265 22.4416 21.4358C21.2706 22.6067 19.683 23.2652 18.027 23.2668ZM18.027 12.827C17.1975 12.8271 16.3866 13.0732 15.6969 13.5342C15.0072 13.9952 14.4697 14.6503 14.1523 15.4168C13.8349 16.1832 13.752 17.0266 13.9139 17.8402C14.0758 18.6538 14.4753 19.4012 15.062 19.9877C15.6486 20.5743 16.396 20.9737 17.2097 21.1355C18.0233 21.2973 18.8667 21.2142 19.6331 20.8967C20.3995 20.5792 21.0545 20.0415 21.5154 19.3518C21.9763 18.662 22.2223 17.8511 22.2223 17.0215C22.221 15.9093 21.7786 14.843 20.9921 14.0567C20.2056 13.2703 19.1392 12.828 18.027 12.827Z" fill="black"/>
</svg>
